{
    "asset" : {
        "generator" : "Khronos glTF Blender I/O v1.6.16",
        "version" : "2.0"
    },
    "extensionsUsed" : [
        "KHR_materials_transmission"
    ],
    "scene" : 0,
    "scenes" : [
        {
            "extras" : {
                "glTF2ExportSettings" : {
                    "export_apply" : 1,
                    "export_draco_mesh_compression_enable" : 0,
                    "export_extras" : 1,
                    "export_format" : "GLTF_EMBEDDED",
                    "export_tangents" : 0,
                    "use_active_collection" : 1,
                    "use_renderable" : 1,
                    "use_selection" : 1,
                    "use_visible" : 1
                }
            },
            "name" : "Scene",
            "nodes" : [
                0,
                1
            ]
        }
    ],
    "nodes" : [
        {
            "mesh" : 0,
            "name" : "tripo_node_f875dcff-99cd-4471-be17-70973e1d8990",
            "rotation" : [
                0,
                -0.7071068286895752,
                0,
                0.7071068286895752
            ]
        },
        {
            "mesh" : 1,
            "name" : "Sphere",
            "rotation" : [
                -0.7306525707244873,
                -0.06899063289165497,
                -0.03813394159078598,
                0.6781835556030273
            ],
            "scale" : [
                1.3412388563156128,
                1.916182279586792,
                1.1519110202789307
            ],
            "translation" : [
                0.014421825297176838,
                0.9133791923522949,
                0.009994096122682095
            ]
        }
    ],
    "materials" : [
        {
            "doubleSided" : true,
            "name" : "tripo_mat_f875dcff-99cd-4471-be17-70973e1d8990",
            "pbrMetallicRoughness" : {
                "baseColorTexture" : {
                    "index" : 0
                },
                "metallicFactor" : 0,
                "roughnessFactor" : 0.05000000074505806
            }
        },
        {
            "alphaMode" : "BLEND",
            "doubleSided" : true,
            "extensions" : {
                "KHR_materials_transmission" : {
                    "transmissionFactor" : 1
                }
            },
            "name" : "Material.001",
            "pbrMetallicRoughness" : {
                "baseColorFactor" : [
                    0.8000000715255737,
                    0.41253426671028137,
                    0,
                    0.6000000238418579
                ],
                "metallicFactor" : 0,
                "roughnessFactor" : 0.05000000074505806
            }
        }
    ],
    "meshes" : [
        {
            "name" : "tripo_mesh_f875dcff-99cd-4471-be17-70973e1d8990",
            "primitives" : [
                {
                    "attributes" : {
                        "POSITION" : 0,
                        "NORMAL" : 1,
                        "TEXCOORD_0" : 2
                    },
                    "indices" : 3,
                    "material" : 0
                }
            ]
        },
        {
            "name" : "Sphere.001",
            "primitives" : [
                {
                    "attributes" : {
                        "POSITION" : 4,
                        "NORMAL" : 5,
                        "TEXCOORD_0" : 6
                    },
                    "indices" : 7,
                    "material" : 1
                }
            ]
        }
    ],
    "textures" : [
        {
            "sampler" : 0,
            "source" : 0
        }
    ],
    "images" : [
        {
            "bufferView" : 4,
            "mimeType" : "image/jpeg",
            "name" : "03-humanoid-helas_basecolor"
        }
    ],
    "accessors" : [
        {
            "bufferView" : 0,
            "componentType" : 5126,
            "count" : 31705,
            "max" : [
                0.14656074345111847,
                1.0000637769699097,
                0.19753342866897583
            ],
            "min" : [
                -0.14674174785614014,
                -0.00012990350660402328,
                -0.19753988087177277
            ],
            "type" : "VEC3"
        },
        {
            "bufferView" : 1,
            "componentType" : 5126,
            "count" : 31705,
            "type" : "VEC3"
        },
        {
            "bufferView" : 2,
            "componentType" : 5126,
            "count" : 31705,
            "type" : "VEC2"
        },
        {
            "bufferView" : 3,
            "componentType" : 5123,
            "count" : 94791,
            "type" : "SCALAR"
        },
        {
            "bufferView" : 5,
            "componentType" : 5126,
            "count" : 395,
            "max" : [
                0.03270117565989494,
                0.007320100907236338,
                0.055955562740564346
            ],
            "min" : [
                -0.0320955254137516,
                -0.021774690598249435,
                -0.05476316064596176
            ],
            "type" : "VEC3"
        },
        {
            "bufferView" : 6,
            "componentType" : 5126,
            "count" : 395,
            "type" : "VEC3"
        },
        {
            "bufferView" : 7,
            "componentType" : 5126,
            "count" : 395,
            "type" : "VEC2"
        },
        {
            "bufferView" : 8,
            "componentType" : 5123,
            "count" : 2016,
            "type" : "SCALAR"
        }
    ],
    "bufferViews" : [
        {
            "buffer" : 0,
            "byteLength" : 380460,
            "byteOffset" : 0
        },
        {
            "buffer" : 0,
            "byteLength" : 380460,
            "byteOffset" : 380460
        },
        {
            "buffer" : 0,
            "byteLength" : 253640,
            "byteOffset" : 760920
        },
        {
            "buffer" : 0,
            "byteLength" : 189582,
            "byteOffset" : 1014560
        },
        {
            "buffer" : 0,
            "byteLength" : 970973,
            "byteOffset" : 1204144
        },
        {
            "buffer" : 0,
            "byteLength" : 4740,
            "byteOffset" : 2175120
        },
        {
            "buffer" : 0,
            "byteLength" : 4740,
            "byteOffset" : 2179860
        },
        {
            "buffer" : 0,
            "byteLength" : 3160,
            "byteOffset" : 2184600
        },
        {
            "buffer" : 0,
            "byteLength" : 4032,
            "byteOffset" : 2187760
        }
    ],
    "samplers" : [
        {
            "magFilter" : 9729,
            "minFilter" : 9987
        }
    ],
    "buffers" : [
        {
            "byteLength" : 2191792,
            "uri" : "data:application/octet-stream;base64,"
        }
    ]
}
